<?xml version="1.0" encoding="UTF-8"?>
<svg height="128px" viewBox="0 0 128 128" width="128px" xmlns="http://www.w3.org/2000/svg" xmlns:xlink="http://www.w3.org/1999/xlink">
    <linearGradient id="a" gradientUnits="userSpaceOnUse" x1="12.14779" x2="119.828863" y1="111.8005" y2="111.8005">
        <stop offset="0" stop-color="#77767b"/>
        <stop offset="0.0746179" stop-color="#62a0ea"/>
        <stop offset="0.14536" stop-color="#77767b"/>
        <stop offset="0.221448" stop-color="#ed333b"/>
        <stop offset="0.891274" stop-color="#e5a50a"/>
        <stop offset="0.965765" stop-color="#f8e45c"/>
        <stop offset="1" stop-color="#77767b"/>
    </linearGradient>
    <clipPath id="b">
        <path d="m 12 5 h 108 v 114 h -108 z m 0 0"/>
    </clipPath>
    <clipPath id="c">
        <path d="m 27.222656 5.609375 c -8.320312 0.074219 -15.023437 6.839844 -15.023437 15.160156 v 82.015625 c 0 5.480469 2.867187 10.558594 7.554687 13.386719 c 4.691406 2.832031 10.519532 3.003906 15.367188 0.453125 l 77.183594 -40.625 c 4.566406 -2.40625 7.453124 -7.113281 7.523437 -12.273438 c 0.070313 -5.15625 -2.6875 -9.941406 -7.1875 -12.46875 l -77.855469 -43.710937 c -2.308594 -1.292969 -4.914062 -1.964844 -7.5625 -1.9375 z m 11.769532 29.191406 c 0.527343 0.085938 1.035156 0.265625 1.5 0.527344 l 43.011718 24.148437 c 1.367188 0.765626 2.207032 2.222657 2.1875 3.789063 c -0.023437 1.566406 -0.898437 3 -2.289062 3.730469 l -42.808594 22.53125 c -1.472656 0.773437 -3.246094 0.722656 -4.667969 -0.136719 c -1.425781 -0.859375 -2.296875 -2.40625 -2.296875 -4.070313 v -45.976562 c 0 -1.351562 0.597656 -2.636719 1.628906 -3.511719 s 2.398438 -1.253906 3.734376 -1.03125 z m 0 0"/>
    </clipPath>
    <linearGradient id="d" gradientUnits="userSpaceOnUse" x1="16" x2="56.000002" y1="32" y2="32">
        <stop offset="0" stop-color="#c061cb"/>
        <stop offset="1" stop-color="#c0bfbc"/>
    </linearGradient>
    <clipPath id="e">
        <path d="m 36 8 h 84 v 82 h -84 z m 0 0"/>
    </clipPath>
    <clipPath id="f">
        <path d="m 27.222656 5.609375 c -8.320312 0.074219 -15.023437 6.839844 -15.023437 15.160156 v 82.015625 c 0 5.480469 2.867187 10.558594 7.554687 13.386719 c 4.691406 2.832031 10.519532 3.003906 15.367188 0.453125 l 77.183594 -40.625 c 4.566406 -2.40625 7.453124 -7.113281 7.523437 -12.273438 c 0.070313 -5.15625 -2.6875 -9.941406 -7.1875 -12.46875 l -77.855469 -43.710937 c -2.308594 -1.292969 -4.914062 -1.964844 -7.5625 -1.9375 z m 11.769532 29.191406 c 0.527343 0.085938 1.035156 0.265625 1.5 0.527344 l 43.011718 24.148437 c 1.367188 0.765626 2.207032 2.222657 2.1875 3.789063 c -0.023437 1.566406 -0.898437 3 -2.289062 3.730469 l -42.808594 22.53125 c -1.472656 0.773437 -3.246094 0.722656 -4.667969 -0.136719 c -1.425781 -0.859375 -2.296875 -2.40625 -2.296875 -4.070313 v -45.976562 c 0 -1.351562 0.597656 -2.636719 1.628906 -3.511719 s 2.398438 -1.253906 3.734376 -1.03125 z m 0 0"/>
    </clipPath>
    <linearGradient id="g" gradientUnits="userSpaceOnUse" x1="95.999998" x2="82.147787" y1="64" y2="28">
        <stop offset="0" stop-color="#f8e45c"/>
        <stop offset="1" stop-color="#99c1f1"/>
    </linearGradient>
    <clipPath id="h">
        <path d="m 12 39 h 95 v 80 h -95 z m 0 0"/>
    </clipPath>
    <clipPath id="i">
        <path d="m 27.222656 5.609375 c -8.320312 0.074219 -15.023437 6.839844 -15.023437 15.160156 v 82.015625 c 0 5.480469 2.867187 10.558594 7.554687 13.386719 c 4.691406 2.832031 10.519532 3.003906 15.367188 0.453125 l 77.183594 -40.625 c 4.566406 -2.40625 7.453124 -7.113281 7.523437 -12.273438 c 0.070313 -5.15625 -2.6875 -9.941406 -7.1875 -12.46875 l -77.855469 -43.710937 c -2.308594 -1.292969 -4.914062 -1.964844 -7.5625 -1.9375 z m 11.769532 29.191406 c 0.527343 0.085938 1.035156 0.265625 1.5 0.527344 l 43.011718 24.148437 c 1.367188 0.765626 2.207032 2.222657 2.1875 3.789063 c -0.023437 1.566406 -0.898437 3 -2.289062 3.730469 l -42.808594 22.53125 c -1.472656 0.773437 -3.246094 0.722656 -4.667969 -0.136719 c -1.425781 -0.859375 -2.296875 -2.40625 -2.296875 -4.070313 v -45.976562 c 0 -1.351562 0.597656 -2.636719 1.628906 -3.511719 s 2.398438 -1.253906 3.734376 -1.03125 z m 0 0"/>
    </clipPath>
    <linearGradient id="j" gradientTransform="matrix(-0.568067 0.822982 -0.822982 -0.568067 271.508137 157.707342)" gradientUnits="userSpaceOnUse" x1="74.144333" x2="95.935219" y1="230.125519" y2="205.363495">
        <stop offset="0" stop-color="#62a0ea"/>
        <stop offset="1" stop-color="#9141ac"/>
    </linearGradient>
    <path d="m 27.222656 10.984375 c -8.320312 0.074219 -15.023437 6.839844 -15.023437 15.160156 v 82.019531 c 0 5.476563 2.867187 10.554688 7.554687 13.386719 c 4.691406 2.828125 10.519532 3 15.367188 0.449219 l 77.183594 -40.625 c 4.566406 -2.402344 7.453124 -7.113281 7.523437 -12.269531 c 0.070313 -5.160157 -2.6875 -9.945313 -7.1875 -12.472657 l -77.855469 -43.710937 c -2.308594 -1.292969 -4.914062 -1.960937 -7.5625 -1.9375 z m 11.769532 29.191406 c 0.527343 0.085938 1.035156 0.265625 1.5 0.527344 l 43.011718 24.148437 c 1.367188 0.769532 2.207032 2.222657 2.1875 3.789063 c -0.023437 1.570313 -0.898437 3 -2.289062 3.730469 l -42.808594 22.53125 c -1.472656 0.773437 -3.246094 0.722656 -4.667969 -0.136719 c -1.425781 -0.859375 -2.296875 -2.402344 -2.296875 -4.066406 v -45.980469 c 0 -1.351562 0.597656 -2.636719 1.628906 -3.511719 s 2.398438 -1.253906 3.734376 -1.03125 z m 0 0" fill="url(#a)"/>
    <path d="m 27.222656 6.453125 c -8.320312 0.074219 -15.023437 6.839844 -15.023437 15.160156 v 82.019531 c 0 5.476563 2.867187 10.554688 7.554687 13.386719 c 4.691406 2.832031 10.519532 3 15.367188 0.449219 l 77.183594 -40.625 c 4.566406 -2.402344 7.453124 -7.109375 7.523437 -12.269531 c 0.070313 -5.160157 -2.6875 -9.945313 -7.1875 -12.472657 l -77.855469 -43.710937 c -2.308594 -1.292969 -4.914062 -1.960937 -7.5625 -1.9375 z m 11.769532 29.191406 c 0.527343 0.089844 1.035156 0.265625 1.5 0.527344 l 43.011718 24.148437 c 1.367188 0.769532 2.207032 2.222657 2.1875 3.789063 c -0.023437 1.570313 -0.898437 3 -2.289062 3.730469 l -42.808594 22.53125 c -1.472656 0.777344 -3.246094 0.722656 -4.667969 -0.136719 c -1.425781 -0.859375 -2.296875 -2.402344 -2.296875 -4.066406 v -45.976563 c 0 -1.355468 0.597656 -2.640625 1.628906 -3.515625 s 2.398438 -1.25 3.734376 -1.03125 z m 0 0" fill="#ffffff" fill-opacity="0.8"/>
    <g clip-path="url(#b)">
        <g clip-path="url(#c)">
            <path d="m 27.222656 5.609375 c -8.320312 0.074219 -15.023437 6.839844 -15.023437 15.160156 v 82.015625 c 0 5.480469 2.867187 10.558594 7.554687 13.386719 c 4.691406 2.832031 10.519532 3.003906 15.367188 0.453125 l 77.183594 -40.625 c 4.566406 -2.40625 7.453124 -7.113281 7.523437 -12.273438 c 0.070313 -5.15625 -2.6875 -9.941406 -7.1875 -12.46875 l -77.855469 -43.710937 c -2.308594 -1.292969 -4.914062 -1.964844 -7.5625 -1.9375 z m 11.769532 29.191406 c 0.527343 0.085938 1.035156 0.265625 1.5 0.527344 l 43.011718 24.148437 c 1.367188 0.765626 2.207032 2.222657 2.1875 3.789063 c -0.023437 1.566406 -0.898437 3 -2.289062 3.730469 l -42.808594 22.53125 c -1.472656 0.773437 -3.246094 0.722656 -4.667969 -0.136719 c -1.425781 -0.859375 -2.296875 -2.40625 -2.296875 -4.070313 v -45.976562 c 0 -1.351562 0.597656 -2.636719 1.628906 -3.511719 s 2.398438 -1.253906 3.734376 -1.03125 z m 0 0" fill="url(#d)"/>
        </g>
    </g>
    <g clip-path="url(#e)">
        <g clip-path="url(#f)">
            <path d="m 36.148438 8 l 47.355468 51.476562 l -0.101562 7.519532 l -42.808594 22.53125 l 123.554688 -17.527344 z m 0 0" fill="url(#g)"/>
        </g>
    </g>
    <g clip-path="url(#h)">
        <g clip-path="url(#i)">
            <path d="m 106.328125 80.144531 l -64.179687 8.855469 l -8.519532 -3.679688 v -45.976562 l -52.683594 109.785156 z m 0 0" fill="url(#j)"/>
        </g>
    </g>
    <g fill="#ffffff">
        <path d="m 45.695312 18.378906 l 30.09375 32.707032 s -8.273437 -9.851563 -12.613281 -14.644532 c -5.621093 -6.214844 -17.480469 -18.0625 -17.480469 -18.0625 z m 0 0" fill-opacity="0.47451"/>
        <path d="m 32.976562 40.703125 l -17.726562 36.941406 s 6.554688 -11.289062 9.199219 -17.1875 c 3.429687 -7.648437 8.527343 -19.753906 8.527343 -19.753906 z m 0 0" fill-opacity="0.278431"/>
    </g>
</svg>
